<svg width="72" height="72" viewBox="0 0 72 72" fill="none" xmlns="http://www.w3.org/2000/svg">
<path d="M45.8855 53.7855C30.3237 80.5195 20.2778 65.1404 24.7167 54.9889" stroke="black" stroke-width="3.6"/>
<path d="M14.4649 36.0939C0.122538 8.62315 17.8722 7.20811 24.0535 16.3068" stroke="black" stroke-width="3.6"/>
<path d="M45.9294 19.1073C75.7812 17.1137 69.5053 34.5467 59.0133 36.5641" stroke="black" stroke-width="3.6"/>
<path d="M45.2 18.8372C35.9999 18.8372 36 18.8372 36 36.4186" stroke="black" stroke-width="3.6"/>
<path d="M36 34.8837L21.6 28.8837" stroke="black" stroke-width="3.6"/>
<path d="M36 34.6744L50.4 28.6744" stroke="black" stroke-width="3.6"/>
<circle cx="16.2" cy="36.6" r="4.6" stroke="black" stroke-width="1.6"/>
<circle cx="55.8" cy="36.6" r="4.6" stroke="black" stroke-width="1.6"/>
<circle cx="45" cy="18.6" r="4.6" stroke="black" stroke-width="1.6"/>
<circle cx="36.2001" cy="34.2" r="4.6" stroke="black" stroke-width="1.6"/>
<circle cx="26.6" cy="18.6" r="4.6" stroke="black" stroke-width="1.6"/>
<path d="M36 34.8642C20.8 45.2553 20.8 45.2553 15.6 36.4229" stroke="black" stroke-width="3.6"/>
<path d="M36 38.8L36 53.6" stroke="black" stroke-width="3.6"/>
<circle cx="26.2" cy="52.6" r="4.6" stroke="#060606" stroke-width="1.6"/>
<circle cx="45.8" cy="52.6" r="4.6" stroke="black" stroke-width="1.6"/>
<path d="M29.0718 12C32.151 6.66666 39.849 6.66667 42.9282 12L60.2487 42C63.3279 47.3333 59.4789 54 53.3205 54H18.6795C12.5211 54 8.67209 47.3333 11.7513 42L29.0718 12Z" stroke="black" stroke-width="0.8"/>
<path d="M41.5426 12.8L58.8631 42.8C61.3264 47.0667 58.2472 52.4 53.3205 52.4H18.6795C13.7528 52.4 10.6736 47.0667 13.1369 42.8L30.4574 12.8C32.9208 8.53333 39.0792 8.53333 41.5426 12.8Z" stroke="black" stroke-width="3.2"/>
<path d="M36.137 34.7628C51.176 44.1928 51.176 44.1928 45.2396 53.1628" stroke="black" stroke-width="3.6"/>
<path d="M45.9294 19.1073C75.7812 17.1137 69.5053 34.5467 59.0133 36.5641" stroke="#2F8EFF" stroke-width="2.8"/>
<path d="M14.4649 36.0939C0.122538 8.62315 17.8722 7.20811 24.0535 16.3068" stroke="#2F8EFF" stroke-width="2.8"/>
<path d="M45.8855 53.7855C30.3237 80.5195 20.2778 65.1404 24.7167 54.9889" stroke="#2F8EFF" stroke-width="2.8"/>
<path d="M36 34.8642C20.8 45.2553 20.8 45.2553 15.6 36.4229" stroke="#2F8EFF" stroke-width="2.8"/>
<path d="M45.2 18.8372C35.9999 18.8372 36 18.8372 36 36.4186" stroke="#2F8EFF" stroke-width="2.8"/>
<path d="M36 38.4V53.6" stroke="#2F8EFF" stroke-width="2.8"/>
<path d="M36.137 34.7628C51.176 44.1928 51.176 44.1928 45.2396 53.1628" stroke="#2F8EFF" stroke-width="2.8"/>
<path d="M36 34.6744L50.4 28.6744" stroke="#2F8EFF" stroke-width="2.8"/>
<path d="M36 34.8837L21.6 28.8837" stroke="#2F8EFF" stroke-width="2.8"/>
<path d="M41.7158 12.7L59.0363 42.7C61.5766 47.1 58.4012 52.6 53.3205 52.6H18.6795C13.5988 52.6 10.4234 47.1 12.9637 42.7L30.2842 12.7C32.8246 8.29999 39.1754 8.3 41.7158 12.7Z" stroke="#F6F8FF" stroke-width="2.8"/>
<circle cx="26.6" cy="18.6" r="4" fill="#F6F8FF" stroke="#2F8EFF" stroke-width="2"/>
<circle cx="36.2" cy="34.2" r="4" fill="#F6F8FF" stroke="#2F8EFF" stroke-width="2"/>
<circle cx="55.8" cy="36.6" r="4" fill="#F6F8FF" stroke="#2F8EFF" stroke-width="2"/>
<circle cx="26.2" cy="52.6" r="4" fill="#F6F8FF" stroke="#2F8EFF" stroke-width="2"/>
<circle cx="45" cy="18.6" r="4" fill="#2F8EFF" stroke="#F6F8FF" stroke-width="2"/>
<circle cx="16.2" cy="36.6" r="4" fill="#2F8EFF" stroke="#F6F8FF" stroke-width="2"/>
<circle cx="45.8" cy="52.6" r="4" fill="#2F8EFF" stroke="#F6F8FF" stroke-width="2"/>
</svg>
